<svg xmlns="http://www.w3.org/2000/svg" xmlns:xlink="http://www.w3.org/1999/xlink" viewBox="40,40,256,256" width="25" height="25"><g fill="none"><g transform="scale(7)"><path d="M34,42h-20c-4.411,0 -8,-3.589 -8,-8v-20c0,-4.411 3.589,-8 8,-8h20c4.411,0 8,3.589 8,8v20c0,4.411 -3.589,8 -8,8z" fill="#132323"></path><path d="M24,38c-7.72,0 -14,-6.28 -14,-14c0,-7.72 6.28,-14 14,-14c7.72,0 14,6.28 14,14c0,7.72 -6.28,14 -14,14zM24,13c-6.065,0 -11,4.935 -11,11c0,6.065 4.935,11 11,11c6.065,0 11,-4.935 11,-11c0,-6.065 -4.935,-11 -11,-11z" fill="#f92890"></path><path d="M24,34c-5.514,0 -10,-4.486 -10,-10c0,-5.514 4.486,-10 10,-10c5.514,0 10,4.486 10,10c0,5.514 -4.486,10 -10,10zM24,17c-3.859,0 -7,3.14 -7,7c0,3.86 3.141,7 7,7c3.859,0 7,-3.14 7,-7c0,-3.86 -3.141,-7 -7,-7z" fill="#d7ff00"></path><path d="M24,30c-3.309,0 -6,-2.691 -6,-6c0,-3.309 2.691,-6 6,-6c3.309,0 6,2.691 6,6c0,3.309 -2.691,6 -6,6zM24,21c-1.654,0 -3,1.346 -3,3c0,1.654 1.346,3 3,3c1.654,0 3,-1.346 3,-3c0,-1.654 -1.346,-3 -3,-3z" fill="#43febc"></path><path d="M26.9,18.74c-0.86,-0.47 -1.85,-0.74 -2.9,-0.74l1,1.5l-1,1.5c0.75,0 1.45,0.29 1.98,0.75c0.62,-0.55 1.02,-1.36 1.02,-2.25c0,-0.26 -0.03,-0.52 -0.1,-0.76z" fill="#186965"></path><path d="M25.5,19.5c0,0.828 -0.672,1.5 -1.5,1.5v-3c0.828,0 1.5,0.672 1.5,1.5z" fill="#43febc"></path><path d="M26.78,14.4c-0.88,-0.26 -1.81,-0.4 -2.78,-0.4l1,1.5l-1,1.5c0.81,0 1.6,0.14 2.32,0.4c0.42,-0.52 0.68,-1.19 0.68,-1.9c0,-0.39 -0.08,-0.76 -0.22,-1.1z" fill="#5f7f29"></path><path d="M25.5,15.5c0,0.828 -0.672,1.5 -1.5,1.5v-3c0.828,0 1.5,0.672 1.5,1.5z" fill="#d7ff00"></path><path d="M26.73,10.26c-0.88,-0.17 -1.8,-0.26 -2.73,-0.26l1,1.5l-1,1.5c0.83,0 1.64,0.09 2.42,0.27c0.36,-0.5 0.58,-1.11 0.58,-1.77c0,-0.44 -0.1,-0.86 -0.27,-1.24z" fill="#6f203f"></path><path d="M25.5,11.5c0,0.828 -0.672,1.5 -1.5,1.5v-3c0.828,0 1.5,0.672 1.5,1.5z" fill="#f92890"></path></g></g></svg>